999
"DXF R12 Output" (www.mydxf.blogspot.com)
 0 
SECTION
 2 
HEADER
 9 
$ACADVER
 1 
AC1009
 9 
$EXTMIN
 10 
 0 
 20 
 0 
 9 
$EXTMAX
 10 
 8.5 
 20 
 11 
 0 
ENDSEC
 0 
SECTION
 2 
ENTITIES
0
LINE
8
Layer 1
10
0.000000
20
661.458000
11
661.458000
21
661.458000
0
LINE
8
Layer 1
10
661.458000
20
661.458000
11
661.458000
21
0.000366
0
LINE
8
Layer 1
10
661.458000
20
0.000366
11
0.000000
21
0.000366
0
LINE
8
Layer 1
10
0.000000
20
0.000366
11
0.000000
21
661.458000
0
LINE
8
Layer 1
10
0.000000
20
661.458000
11
0.000000
21
661.458000
0
LINE
8
Layer 1
10
111.547000
20
133.849000
11
295.579000
21
54.390800
0
LINE
8
Layer 1
10
295.579000
20
54.390800
11
95.007000
21
338.429800
0
LINE
8
Layer 1
10
95.007000
20
338.429800
11
111.547200
21
133.848800
0
LINE
8
Layer 1
10
111.547200
20
133.848800
11
111.547000
21
133.849000
0
LINE
8
Layer 1
10
591.076000
20
581.145000
11
548.785200
21
524.410700
0
LINE
8
Layer 1
10
548.785200
20
524.410700
11
419.075200
21
486.083400
0
LINE
8
Layer 1
10
419.075200
20
486.083400
11
412.874330
21
446.445200
0
LINE
8
Layer 1
10
412.874330
20
446.445200
11
531.109330
21
476.879900
0
LINE
8
Layer 1
10
531.109330
20
476.879900
11
528.099830
21
453.212300
0
LINE
8
Layer 1
10
528.099830
20
453.212300
11
408.550830
21
420.711800
0
LINE
8
Layer 1
10
408.550830
20
420.711800
11
406.666890
21
395.723000
0
LINE
8
Layer 1
10
406.666890
20
395.723000
11
523.401890
21
425.032100
0
LINE
8
Layer 1
10
523.401890
20
425.032100
11
520.766440
21
400.235500
0
LINE
8
Layer 1
10
520.766440
20
400.235500
11
414.747440
21
372.429400
0
LINE
8
Layer 1
10
414.747440
20
372.429400
11
410.554213
21
371.205980
0
LINE
8
Layer 1
10
410.554213
20
371.205980
11
406.426245
21
369.650194
0
LINE
8
Layer 1
10
406.426245
20
369.650194
11
402.359314
21
367.764251
0
LINE
8
Layer 1
10
402.359314
20
367.764251
11
398.349202
21
365.550364
0
LINE
8
Layer 1
10
398.349202
20
365.550364
11
394.391689
21
363.010744
0
LINE
8
Layer 1
10
394.391689
20
363.010744
11
390.482554
21
360.147602
0
LINE
8
Layer 1
10
390.482554
20
360.147602
11
386.617578
21
356.963150
0
LINE
8
Layer 1
10
386.617578
20
356.963150
11
382.792540
21
353.459600
0
LINE
8
Layer 1
10
382.792540
20
353.459600
11
330.162440
21
306.865600
0
LINE
8
Layer 1
10
330.162440
20
306.865600
11
276.966040
21
356.839700
0
LINE
8
Layer 1
10
276.966040
20
356.839700
11
273.881109
21
359.498595
0
LINE
8
Layer 1
10
273.881109
20
359.498595
11
270.688443
21
361.979019
0
LINE
8
Layer 1
10
270.688443
20
361.979019
11
267.385832
21
364.278801
0
LINE
8
Layer 1
10
267.385832
20
364.278801
11
263.971065
21
366.395770
0
LINE
8
Layer 1
10
263.971065
20
366.395770
11
260.441933
21
368.327755
0
LINE
8
Layer 1
10
260.441933
20
368.327755
11
256.796224
21
370.072586
0
LINE
8
Layer 1
10
256.796224
20
370.072586
11
253.031730
21
371.628091
0
LINE
8
Layer 1
10
253.031730
20
371.628091
11
249.146240
21
372.992100
0
LINE
8
Layer 1
10
249.146240
20
372.992100
11
145.571240
21
404.555800
0
LINE
8
Layer 1
10
145.571240
20
404.555800
11
142.565180
21
429.352400
0
LINE
8
Layer 1
10
142.565180
20
429.352400
11
255.347180
21
396.289100
0
LINE
8
Layer 1
10
255.347180
20
396.289100
11
251.212130
21
424.095200
0
LINE
8
Layer 1
10
251.212130
20
424.095200
11
135.420130
21
459.220900
0
LINE
8
Layer 1
10
135.420130
20
459.220900
11
132.414070
21
482.140400
0
LINE
8
Layer 1
10
132.414070
20
482.140400
11
248.580070
21
447.951600
0
LINE
8
Layer 1
10
248.580070
20
447.951600
11
243.885670
21
487.215700
0
LINE
8
Layer 1
10
243.885670
20
487.215700
11
114.744670
21
526.476400
0
LINE
8
Layer 1
10
114.744670
20
526.476400
11
70.381700
21
584.340000
0
LINE
8
Layer 1
10
70.381700
20
584.340000
11
94.066500
21
383.891000
0
LINE
8
Layer 1
10
94.066500
20
383.891000
11
326.593500
21
53.447000
0
LINE
8
Layer 1
10
326.593500
20
53.447000
11
563.252500
21
377.690000
0
LINE
8
Layer 1
10
563.252500
20
377.690000
11
591.075800
21
581.145000
0
LINE
8
Layer 1
10
591.075800
20
581.145000
11
591.076000
21
581.145000
0
LINE
8
Layer 1
10
392.762000
20
222.710000
11
356.483300
21
295.977700
0
LINE
8
Layer 1
10
356.483300
20
295.977700
11
508.557300
21
341.439300
0
LINE
8
Layer 1
10
508.557300
20
341.439300
11
392.762300
21
222.710300
0
LINE
8
Layer 1
10
392.762300
20
222.710300
11
392.762000
21
222.710000
0
LINE
8
Layer 1
10
148.766000
20
346.696000
11
301.784000
21
298.043100
0
LINE
8
Layer 1
10
301.784000
20
298.043100
11
265.501900
21
222.709600
0
LINE
8
Layer 1
10
265.501900
20
222.709600
11
148.766900
21
346.695600
0
LINE
8
Layer 1
10
148.766900
20
346.695600
11
148.766000
21
346.696000
0
LINE
8
Layer 1
10
542.577000
20
129.721000
11
562.315400
21
335.238000
0
LINE
8
Layer 1
10
562.315400
20
335.238000
11
360.617400
21
55.327000
0
LINE
8
Layer 1
10
360.617400
20
55.327000
11
542.577400
21
129.720200
0
LINE
8
Layer 1
10
542.577400
20
129.720200
11
542.577000
21
129.721000
0
LINE
8
Layer 1
10
283.171000
20
384.831000
11
329.600300
21
339.369400
0
LINE
8
Layer 1
10
329.600300
20
339.369400
11
374.149100
21
381.824900
0
LINE
8
Layer 1
10
374.149100
20
381.824900
11
411.368000
21
605.000900
0
LINE
8
Layer 1
10
411.368000
20
605.000900
11
360.618400
21
514.077800
0
LINE
8
Layer 1
10
360.618400
20
514.077800
11
304.786000
21
514.079000
0
LINE
8
Layer 1
10
304.786000
20
514.079000
11
251.027000
21
608.008000
0
LINE
8
Layer 1
10
251.027000
20
608.008000
11
283.170600
21
384.832000
0
LINE
8
Layer 1
10
283.170600
20
384.832000
11
283.171000
21
384.831000
0
LINE
8
Layer 1
10
357.608800
20
476.694400
11
331.669000
21
395.167000
0
LINE
8
Layer 1
10
331.669000
20
395.167000
11
304.789400
21
476.694500
0
LINE
8
Layer 1
10
304.789400
20
476.694500
11
357.608000
21
476.695000
0
LINE
8
Layer 1
10
357.608000
20
476.695000
11
357.608800
21
476.694400
0
LINE
8
Layer 1
10
542.577000
20
129.721000
11
360.617000
21
55.327800
0
LINE
8
Layer 1
10
360.617000
20
55.327800
11
562.315000
21
335.234800
0
LINE
8
Layer 1
10
562.315000
20
335.234800
11
542.576600
21
129.720800
0
LINE
8
Layer 1
10
542.576600
20
129.720800
11
542.577000
21
129.721000
0
LINE
8
Layer 1
10
357.608000
20
476.695000
11
304.786000
21
476.695000
0
LINE
8
Layer 1
10
304.786000
20
476.695000
11
331.666000
21
395.167000
0
LINE
8
Layer 1
10
331.666000
20
395.167000
11
357.608700
21
476.694500
0
LINE
8
Layer 1
10
357.608700
20
476.694500
11
357.608000
21
476.695000
0
LINE
8
Layer 1
10
283.170200
20
384.831600
11
251.026600
21
608.007600
0
LINE
8
Layer 1
10
251.026600
20
608.007600
11
304.785700
21
514.078400
0
LINE
8
Layer 1
10
304.785700
20
514.078400
11
360.618000
21
514.079000
0
LINE
8
Layer 1
10
360.618000
20
514.079000
11
411.367600
21
605.002100
0
LINE
8
Layer 1
10
411.367600
20
605.002100
11
374.148700
21
381.826100
0
LINE
8
Layer 1
10
374.148700
20
381.826100
11
329.600000
21
339.370000
0
LINE
8
Layer 1
10
329.600000
20
339.370000
11
283.170700
21
384.831600
0
LINE
8
Layer 1
10
283.170700
20
384.831600
11
283.170200
21
384.831600
0
LINE
8
Layer 1
10
148.766000
20
346.696000
11
265.501000
21
222.710000
0
LINE
8
Layer 1
10
265.501000
20
222.710000
11
301.783100
21
298.043500
0
LINE
8
Layer 1
10
301.783100
20
298.043500
11
148.765100
21
346.696400
0
LINE
8
Layer 1
10
148.765100
20
346.696400
11
148.766000
21
346.696000
0
LINE
8
Layer 1
10
295.579000
20
54.391000
11
95.006700
21
338.430000
0
LINE
8
Layer 1
10
95.006700
20
338.430000
11
111.546900
21
133.849000
0
LINE
8
Layer 1
10
111.546900
20
133.849000
11
295.578900
21
54.390800
0
LINE
8
Layer 1
10
295.578900
20
54.390800
11
295.579000
21
54.391000
0
LINE
8
Layer 1
10
356.482700
20
295.974000
11
508.556700
21
341.435600
0
LINE
8
Layer 1
10
508.556700
20
341.435600
11
392.761700
21
222.706600
0
LINE
8
Layer 1
10
392.761700
20
222.706600
11
356.483000
21
295.974300
0
LINE
8
Layer 1
10
356.483000
20
295.974300
11
356.482700
21
295.974000
0
LINE
8
Layer 1
10
548.784700
20
524.411000
11
419.074700
21
486.083700
0
LINE
8
Layer 1
10
419.074700
20
486.083700
11
412.873830
21
446.445500
0
LINE
8
Layer 1
10
412.873830
20
446.445500
11
531.108830
21
476.880200
0
LINE
8
Layer 1
10
531.108830
20
476.880200
11
528.099330
21
453.212600
0
LINE
8
Layer 1
10
528.099330
20
453.212600
11
408.550330
21
420.712100
0
LINE
8
Layer 1
10
408.550330
20
420.712100
11
406.666390
21
395.723300
0
LINE
8
Layer 1
10
406.666390
20
395.723300
11
523.401390
21
425.032400
0
LINE
8
Layer 1
10
523.401390
20
425.032400
11
520.765940
21
400.235800
0
LINE
8
Layer 1
10
520.765940
20
400.235800
11
414.746940
21
372.429700
0
LINE
8
Layer 1
10
414.746940
20
372.429700
11
410.553713
21
371.206280
0
LINE
8
Layer 1
10
410.553713
20
371.206280
11
406.425745
21
369.650494
0
LINE
8
Layer 1
10
406.425745
20
369.650494
11
402.358814
21
367.764551
0
LINE
8
Layer 1
10
402.358814
20
367.764551
11
398.348702
21
365.550664
0
LINE
8
Layer 1
10
398.348702
20
365.550664
11
394.391189
21
363.011044
0
LINE
8
Layer 1
10
394.391189
20
363.011044
11
390.482054
21
360.147902
0
LINE
8
Layer 1
10
390.482054
20
360.147902
11
386.617078
21
356.963450
0
LINE
8
Layer 1
10
386.617078
20
356.963450
11
382.792040
21
353.459900
0
LINE
8
Layer 1
10
382.792040
20
353.459900
11
330.161940
21
306.865900
0
LINE
8
Layer 1
10
330.161940
20
306.865900
11
276.965540
21
356.840000
0
LINE
8
Layer 1
10
276.965540
20
356.840000
11
273.880609
21
359.498895
0
LINE
8
Layer 1
10
273.880609
20
359.498895
11
270.687943
21
361.979319
0
LINE
8
Layer 1
10
270.687943
20
361.979319
11
267.385332
21
364.279101
0
LINE
8
Layer 1
10
267.385332
20
364.279101
11
263.970565
21
366.396070
0
LINE
8
Layer 1
10
263.970565
20
366.396070
11
260.441433
21
368.328055
0
LINE
8
Layer 1
10
260.441433
20
368.328055
11
256.795724
21
370.072886
0
LINE
8
Layer 1
10
256.795724
20
370.072886
11
253.031230
21
371.628391
0
LINE
8
Layer 1
10
253.031230
20
371.628391
11
249.145740
21
372.992400
0
LINE
8
Layer 1
10
249.145740
20
372.992400
11
145.570740
21
404.556100
0
LINE
8
Layer 1
10
145.570740
20
404.556100
11
142.564680
21
429.352700
0
LINE
8
Layer 1
10
142.564680
20
429.352700
11
255.346680
21
396.289400
0
LINE
8
Layer 1
10
255.346680
20
396.289400
11
251.211630
21
424.095500
0
LINE
8
Layer 1
10
251.211630
20
424.095500
11
135.419630
21
459.221200
0
LINE
8
Layer 1
10
135.419630
20
459.221200
11
132.413570
21
482.140700
0
LINE
8
Layer 1
10
132.413570
20
482.140700
11
248.579570
21
447.951900
0
LINE
8
Layer 1
10
248.579570
20
447.951900
11
243.885170
21
487.216000
0
LINE
8
Layer 1
10
243.885170
20
487.216000
11
114.744170
21
526.476700
0
LINE
8
Layer 1
10
114.744170
20
526.476700
11
70.381700
21
584.340000
0
LINE
8
Layer 1
10
70.381700
20
584.340000
11
94.066500
21
383.891000
0
LINE
8
Layer 1
10
94.066500
20
383.891000
11
326.593500
21
53.447000
0
LINE
8
Layer 1
10
326.593500
20
53.447000
11
563.252500
21
377.690000
0
LINE
8
Layer 1
10
563.252500
20
377.690000
11
591.072300
21
581.145000
0
LINE
8
Layer 1
10
591.072300
20
581.145000
11
548.784900
21
524.410700
0
LINE
8
Layer 1
10
548.784900
20
524.410700
11
548.784700
21
524.411000
 0 
ENDSEC
 0 
EOF