  0
SECTION
  2
HEADER
  9
$ACADVER
  1
AC1006
  9
$EXTMIN
 10
0.000000
 20
0.000000
 30
0.000000
  9
$EXTMAX
 10
736.000000
 20
736.000000
 30
0.000000
  0
ENDSEC
  0
SECTION
  2
ENTITIES
  0
POLYLINE
  8
0
 66
1
 70
1
  0
VERTEX
  8
0
 10
336.000000
 20
683.854551
 42
0.023376
  0
VERTEX
  8
0
 10
304.493633
 20
680.516391
 42
0.013000
  0
VERTEX
  8
0
 10
266.476912
 20
673.665256
 42
0.012905
  0
VERTEX
  8
0
 10
228.023798
 20
664.657436
 42
0.019291
  0
VERTEX
  8
0
 10
195.000000
 20
654.641013
 42
0.002962
  0
VERTEX
  8
0
 10
185.613425
 20
651.331280
 42
0.004887
  0
VERTEX
  8
0
 10
177.726561
 20
648.410346
 42
0.000981
  0
VERTEX
  8
0
 10
170.868958
 20
645.778666
 42
0.343418
  0
VERTEX
  8
0
 10
170.601058
 20
645.332557
 42
0.023554
  0
VERTEX
  8
0
 10
170.708897
 20
644.696285
 42
0.000188
  0
VERTEX
  8
0
 10
171.808357
 20
639.670384
 42
0.000684
  0
VERTEX
  8
0
 10
173.079623
 20
633.907230
 42
0.000439
  0
VERTEX
  8
0
 10
174.569103
 20
627.226196
 42
0.000000
  0
VERTEX
  8
0
 10
178.436090
 20
609.952393
 42
0.000000
  0
VERTEX
  8
0
 10
211.968045
 20
588.809592
 42
-0.000156
  0
VERTEX
  8
0
 10
225.979408
 20
579.968931
 42
-0.000145
  0
VERTEX
  8
0
 10
240.349988
 20
570.889523
 42
-0.000144
  0
VERTEX
  8
0
 10
253.137268
 20
562.800115
 42
-0.000485
  0
VERTEX
  8
0
 10
261.500000
 20
557.494993
 42
0.000567
  0
VERTEX
  8
0
 10
269.751326
 20
552.262445
 42
0.000180
  0
VERTEX
  8
0
 10
282.053125
 20
544.487062
 42
0.000180
  0
VERTEX
  8
0
 10
295.766641
 20
535.833228
 42
0.000201
  0
VERTEX
  8
0
 10
309.000000
 20
527.496474
 42
-0.000162
  0
VERTEX
  8
0
 10
322.021677
 20
519.294466
 42
-0.000160
  0
VERTEX
  8
0
 10
335.099209
 20
511.045483
 42
-0.000157
  0
VERTEX
  8
0
 10
346.550635
 20
503.812041
 42
-0.000616
  0
VERTEX
  8
0
 10
353.614329
 20
499.334877
 42
0.004517
  0
VERTEX
  8
0
 10
358.741454
 20
496.140963
 42
0.006730
  0
VERTEX
  8
0
 10
363.288612
 20
493.448370
 42
0.003249
  0
VERTEX
  8
0
 10
367.181622
 20
491.246861
 42
0.127730
  0
VERTEX
  8
0
 10
368.132194
 20
491.000000
 42
0.093738
  0
VERTEX
  8
0
 10
368.887898
 20
491.142932
 42
0.018916
  0
VERTEX
  8
0
 10
370.146319
 20
491.692406
 42
0.019354
  0
VERTEX
  8
0
 10
371.581789
 20
492.454787
 42
0.017038
  0
VERTEX
  8
0
 10
373.017865
 20
493.357127
 42
-0.005925
  0
VERTEX
  8
0
 10
375.113480
 20
494.739769
 42
-0.000848
  0
VERTEX
  8
0
 10
379.442748
 20
497.512701
 42
-0.000964
  0
VERTEX
  8
0
 10
384.576010
 20
500.774430
 42
-0.000822
  0
VERTEX
  8
0
 10
390.000000
 20
504.193753
 42
0.000438
  0
VERTEX
  8
0
 10
409.325211
 20
516.355748
 42
0.000105
  0
VERTEX
  8
0
 10
441.364551
 20
536.567775
 42
0.000095
  0
VERTEX
  8
0
 10
473.247481
 20
556.698994
 42
0.000599
  0
VERTEX
  8
0
 10
489.500000
 20
566.992608
 42
-0.000534
  0
VERTEX
  8
0
 10
496.309067
 20
571.306404
 42
-0.000157
  0
VERTEX
  8
0
 10
506.762169
 20
577.908591
 42
-0.000158
  0
VERTEX
  8
0
 10
518.523899
 20
585.326942
 42
-0.000170
  0
VERTEX
  8
0
 10
530.009510
 20
592.560625
 42
0.000000
  0
VERTEX
  8
0
 10
557.519021
 20
609.873181
 42
0.000000
  0
VERTEX
  8
0
 10
561.400335
 20
627.186590
 42
0.000398
  0
VERTEX
  8
0
 10
562.895892
 20
633.882805
 42
0.000619
  0
VERTEX
  8
0
 10
564.173583
 20
639.658750
 42
0.000170
  0
VERTEX
  8
0
 10
565.279514
 20
644.695905
 42
0.021352
  0
VERTEX
  8
0
 10
565.390824
 20
645.332557
 42
0.346059
  0
VERTEX
  8
0
 10
565.125782
 20
645.778823
 42
0.000987
  0
VERTEX
  8
0
 10
558.271055
 20
648.410533
 42
0.004905
  0
VERTEX
  8
0
 10
550.386017
 20
651.331666
 42
0.002972
  0
VERTEX
  8
0
 10
541.000000
 20
654.641650
 42
0.012916
  0
VERTEX
  8
0
 10
518.018311
 20
661.933926
 42
0.011126
  0
VERTEX
  8
0
 10
493.522471
 20
668.428801
 42
0.010647
  0
VERTEX
  8
0
 10
467.641845
 20
674.097705
 42
0.009455
  0
VERTEX
  8
0
 10
440.500000
 20
678.908720
 42
0.012469
  0
VERTEX
  8
0
 10
413.971342
 20
682.419826
 42
0.014840
  0
VERTEX
  8
0
 10
388.797494
 20
684.361335
 42
0.014701
  0
VERTEX
  8
0
 10
363.351767
 20
684.816669
 42
0.011827
  0
SEQEND
  0
POLYLINE
  8
0
 66
1
 70
1
  0
VERTEX
  8
0
 10
404.212704
 20
633.018628
 42
-0.016497
  0
VERTEX
  8
0
 10
418.548542
 20
630.970171
 42
-0.008351
  0
VERTEX
  8
0
 10
436.455612
 20
627.496155
 42
-0.002014
  0
VERTEX
  8
0
 10
454.847012
 20
623.530947
 42
-0.360392
  0
VERTEX
  8
0
 10
455.983215
 20
622.074840
 42
-0.240039
  0
VERTEX
  8
0
 10
455.783524
 20
621.709617
 42
-0.000093
  0
VERTEX
  8
0
 10
443.051291
 20
613.015975
 42
-0.001369
  0
VERTEX
  8
0
 10
428.848789
 20
603.379189
 42
-0.000829
  0
VERTEX
  8
0
 10
411.983215
 20
592.043372
 42
0.000000
  0
VERTEX
  8
0
 10
368.000000
 20
562.586744
 42
0.000000
  0
VERTEX
  8
0
 10
324.016785
 20
592.043372
 42
-0.000861
  0
VERTEX
  8
0
 10
307.151249
 20
603.380741
 42
-0.001422
  0
VERTEX
  8
0
 10
292.948709
 20
613.022416
 42
-0.000100
  0
VERTEX
  8
0
 10
280.223652
 20
621.717770
 42
-0.240225
  0
VERTEX
  8
0
 10
280.016785
 20
622.096766
 42
-0.342132
  0
VERTEX
  8
0
 10
280.234997
 20
622.395310
 42
-0.001119
  0
VERTEX
  8
0
 10
284.925243
 20
623.734279
 42
-0.005221
  0
VERTEX
  8
0
 10
290.328927
 20
625.203082
 42
-0.003167
  0
VERTEX
  8
0
 10
296.750000
 20
626.833266
 42
-0.013017
  0
VERTEX
  8
0
 10
308.476401
 20
629.409513
 42
-0.011156
  0
VERTEX
  8
0
 10
320.939161
 20
631.522121
 42
-0.009010
  0
VERTEX
  8
0
 10
335.773335
 20
633.425104
 42
-0.004240
  0
VERTEX
  8
0
 10
355.000000
 20
635.375309
 42
-0.027853
  0
VERTEX
  8
0
 10
362.931121
 20
635.668217
 42
-0.007269
  0
VERTEX
  8
0
 10
375.675395
 20
635.243499
 42
-0.007415
  0
VERTEX
  8
0
 10
390.098655
 20
634.338241
 42
-0.007857
  0
SEQEND
  0
POLYLINE
  8
0
 66
1
 70
1
  0
VERTEX
  8
0
 10
35.381639
 20
643.250000
 42
-0.017574
  0
VERTEX
  8
0
 10
35.734151
 20
641.879771
 42
-0.000114
  0
VERTEX
  8
0
 10
38.417342
 20
629.676563
 42
-0.000458
  0
VERTEX
  8
0
 10
41.468191
 20
615.725194
 42
-0.000292
  0
VERTEX
  8
0
 10
44.990769
 20
599.500000
 42
0.000093
  0
VERTEX
  8
0
 10
48.721347
 20
582.283581
 42
0.000096
  0
VERTEX
  8
0
 10
52.411581
 20
565.284375
 42
0.000093
  0
VERTEX
  8
0
 10
55.610045
 20
550.577306
 42
0.000419
  0
VERTEX
  8
0
 10
57.484612
 20
542.000000
 42
-0.000215
  0
VERTEX
  8
0
 10
60.737749
 20
527.143900
 42
-0.000170
  0
VERTEX
  8
0
 10
64.245950
 20
511.063757
 42
-0.000163
  0
VERTEX
  8
0
 10
67.896233
 20
494.278649
 42
-0.000158
  0
VERTEX
  8
0
 10
71.577982
 20
477.296289
 42
0.000000
  0
VERTEX
  8
0
 10
75.302032
 20
460.092578
 42
0.000000
  0
VERTEX
  8
0
 10
90.901016
 20
450.375940
 42
-0.000114
  0
VERTEX
  8
0
 10
99.337173
 20
445.118363
 42
-0.000028
  0
VERTEX
  8
0
 10
113.135338
 20
436.513605
 42
-0.000029
  0
VERTEX
  8
0
 10
128.923217
 20
426.665505
 42
-0.000029
  0
VERTEX
  8
0
 10
144.687370
 20
416.829651
 42
0.000000
  0
VERTEX
  8
0
 10
182.874740
 20
393.000000
 42
0.000000
  0
VERTEX
  8
0
 10
243.268520
 20
393.000000
 42
0.000000
  0
VERTEX
  8
0
 10
303.662299
 20
393.000000
 42
0.000000
  0
VERTEX
  8
0
 10
299.272058
 20
415.250000
 42
0.000052
  0
VERTEX
  8
0
 10
297.062541
 20
426.441782
 42
0.000019
  0
VERTEX
  8
0
 10
293.912246
 20
442.386904
 42
0.000019
  0
VERTEX
  8
0
 10
290.457268
 20
459.867281
 42
0.000022
  0
VERTEX
  8
0
 10
287.190908
 20
476.386270
 42
0.000000
  0
VERTEX
  8
0
 10
279.500000
 20
515.272540
 42
0.000000
  0
VERTEX
  8
0
 10
239.000000
 20
540.462612
 42
-0.000147
  0
VERTEX
  8
0
 10
162.921072
 20
587.812915
 42
-0.006042
  0
VERTEX
  8
0
 10
146.580974
 20
598.265531
 42
-0.025215
  0
VERTEX
  8
0
 10
139.059637
 20
603.767870
 42
-0.180151
  0
VERTEX
  8
0
 10
136.810580
 20
607.586208
 42
-0.029861
  0
VERTEX
  8
0
 10
136.535934
 20
609.940768
 42
-0.004244
  0
VERTEX
  8
0
 10
136.302581
 20
614.805986
 42
-0.004819
  0
VERTEX
  8
0
 10
136.130647
 20
620.573861
 42
-0.004091
  0
VERTEX
  8
0
 10
136.057630
 20
626.668213
 42
0.003684
  0
VERTEX
  8
0
 10
135.991449
 20
632.594516
 42
0.005281
  0
VERTEX
  8
0
 10
135.838626
 20
637.845413
 42
0.002956
  0
VERTEX
  8
0
 10
135.636959
 20
642.267734
 42
0.078894
  0
VERTEX
  8
0
 10
135.393011
 20
643.418213
 42
0.293205
  0
VERTEX
  8
0
 10
134.076047
 20
644.386453
 42
0.008068
  0
VERTEX
  8
0
 10
126.644032
 20
644.739047
 42
0.007057
  0
VERTEX
  8
0
 10
114.023907
 20
644.955585
 42
0.000761
  0
VERTEX
  8
0
 10
84.825624
 20
645.000000
 42
0.000623
  0
VERTEX
  8
0
 10
53.737731
 20
644.961289
 42
0.008222
  0
VERTEX
  8
0
 10
42.254246
 20
644.743827
 42
0.014792
  0
VERTEX
  8
0
 10
36.122145
 20
644.344915
 42
0.471759
  0
SEQEND
  0
POLYLINE
  8
0
 66
1
 70
1
  0
VERTEX
  8
0
 10
157.000000
 20
555.974351
 42
0.000008
  0
VERTEX
  8
0
 10
171.236025
 20
549.734275
 42
0.000005
  0
VERTEX
  8
0
 10
188.059375
 20
542.360610
 42
0.000005
  0
VERTEX
  8
0
 10
204.740291
 20
535.049759
 42
0.000009
  0
VERTEX
  8
0
 10
218.500000
 20
529.019645
 42
-0.001835
  0
VERTEX
  8
0
 10
230.078663
 20
523.894869
 42
-0.002860
  0
VERTEX
  8
0
 10
240.012121
 20
519.386253
 42
-0.000821
  0
VERTEX
  8
0
 10
248.616483
 20
515.404232
 42
-0.096753
  0
VERTEX
  8
0
 10
249.605093
 20
514.686465
 42
-0.152779
  0
VERTEX
  8
0
 10
250.538944
 20
512.736799
 42
-0.002360
  0
VERTEX
  8
0
 10
252.280258
 20
500.268190
 42
-0.001748
  0
VERTEX
  8
0
 10
253.948377
 20
487.562584
 42
-0.232152
  0
VERTEX
  8
0
 10
253.456754
 20
486.123420
 42
-0.287646
  0
VERTEX
  8
0
 10
252.735257
 20
485.958114
 42
-0.005164
  0
VERTEX
  8
0
 10
248.844699
 20
487.357462
 42
-0.009027
  0
VERTEX
  8
0
 10
243.603959
 20
489.412210
 42
-0.003002
  0
VERTEX
  8
0
 10
236.000000
 20
492.606625
 42
0.003850
  0
VERTEX
  8
0
 10
232.055018
 20
494.256046
 42
0.000120
  0
VERTEX
  8
0
 10
215.829599
 20
500.889155
 42
0.000234
  0
VERTEX
  8
0
 10
196.699787
 20
508.693800
 42
0.000162
  0
VERTEX
  8
0
 10
175.058210
 20
517.503183
 42
-0.000328
  0
VERTEX
  8
0
 10
153.773284
 20
526.175602
 42
-0.000540
  0
VERTEX
  8
0
 10
135.790486
 20
533.539006
 42
-0.000030
  0
VERTEX
  8
0
 10
119.593556
 20
540.192733
 42
-0.099212
  0
VERTEX
  8
0
 10
119.235281
 20
540.431385
 42
-0.157147
  0
VERTEX
  8
0
 10
118.780578
 20
541.318488
 42
-0.000378
  0
VERTEX
  8
0
 10
116.440325
 20
555.714261
 42
-0.001334
  0
VERTEX
  8
0
 10
114.303161
 20
569.150977
 42
-0.037034
  0
VERTEX
  8
0
 10
114.015357
 20
572.694971
 42
0.000000
  0
VERTEX
  8
0
 10
114.000000
 20
574.889942
 42
0.000000
  0
VERTEX
  8
0
 10
119.750000
 20
572.336142
 42
0.000945
  0
VERTEX
  8
0
 10
123.465234
 20
570.694459
 42
0.000079
  0
VERTEX
  8
0
 10
133.064063
 20
566.476423
 42
0.000106
  0
VERTEX
  8
0
 10
144.516315
 20
561.448992
 42
0.000082
  0
SEQEND
  0
POLYLINE
  8
0
 66
1
 70
1
  0
VERTEX
  8
0
 10
148.797049
 20
495.043041
 42
0.000318
  0
VERTEX
  8
0
 10
160.428482
 20
490.462668
 42
0.000104
  0
VERTEX
  8
0
 10
177.563826
 20
483.731624
 42
0.000104
  0
VERTEX
  8
0
 10
196.585694
 20
476.268675
 42
0.000118
  0
VERTEX
  8
0
 10
214.845761
 20
469.113947
 42
-0.000430
  0
VERTEX
  8
0
 10
231.492215
 20
462.579466
 42
-0.000706
  0
VERTEX
  8
0
 10
245.569565
 20
457.016516
 42
-0.000050
  0
VERTEX
  8
0
 10
258.214446
 20
451.997503
 42
-0.102216
  0
VERTEX
  8
0
 10
258.568920
 20
451.764414
 42
-0.151678
  0
VERTEX
  8
0
 10
258.983791
 20
450.975888
 42
-0.000170
  0
VERTEX
  8
0
 10
262.453621
 20
432.220573
 42
-0.000516
  0
VERTEX
  8
0
 10
265.753242
 20
414.247434
 42
-0.045164
  0
VERTEX
  8
0
 10
266.000000
 20
411.521184
 42
-0.463377
  0
VERTEX
  8
0
 10
265.513338
 20
411.108812
 42
-0.037632
  0
VERTEX
  8
0
 10
263.665356
 20
411.561279
 42
-0.023951
  0
VERTEX
  8
0
 10
260.728580
 20
412.677571
 42
-0.006698
  0
VERTEX
  8
0
 10
256.250000
 20
414.701970
 42
0.001681
  0
VERTEX
  8
0
 10
225.993638
 20
428.745698
 42
0.000563
  0
VERTEX
  8
0
 10
181.684701
 20
449.070812
 42
0.000023
  0
VERTEX
  8
0
 10
132.067639
 20
471.760470
 42
0.107627
  0
VERTEX
  8
0
 10
130.967754
 20
472.000000
 42
-0.305053
  0
VERTEX
  8
0
 10
130.160720
 20
472.542897
 42
-0.038266
  0
VERTEX
  8
0
 10
129.484158
 20
474.655294
 42
-0.014659
  0
VERTEX
  8
0
 10
128.609734
 20
478.878907
 42
-0.001139
  0
VERTEX
  8
0
 10
126.627889
 20
490.250000
 42
-0.006064
  0
VERTEX
  8
0
 10
125.786971
 20
495.522819
 42
-0.010257
  0
VERTEX
  8
0
 10
125.227007
 20
499.960938
 42
-0.004235
  0
VERTEX
  8
0
 10
124.868724
 20
503.661248
 42
-0.440246
  0
VERTEX
  8
0
 10
125.178888
 20
504.000000
 42
-0.090413
  0
VERTEX
  8
0
 10
125.871059
 20
503.873807
 42
-0.000453
  0
VERTEX
  8
0
 10
132.494247
 20
501.368893
 42
-0.002037
  0
VERTEX
  8
0
 10
140.028321
 20
498.476498
 42
-0.001287
  0
SEQEND
  0
POLYLINE
  8
0
 66
1
 70
1
  0
VERTEX
  8
0
 10
600.558152
 20
642.750000
 42
0.040747
  0
VERTEX
  8
0
 10
600.355914
 20
641.187447
 42
0.001976
  0
VERTEX
  8
0
 10
600.129026
 20
635.952129
 42
0.003207
  0
VERTEX
  8
0
 10
599.923779
 20
629.724437
 42
0.002306
  0
VERTEX
  8
0
 10
599.771270
 20
622.767884
 42
-0.003296
  0
VERTEX
  8
0
 10
599.551669
 20
613.580765
 42
-0.015710
  0
VERTEX
  8
0
 10
599.226816
 20
608.340083
 42
-0.023698
  0
VERTEX
  8
0
 10
598.763545
 20
605.069503
 42
-0.159324
  0
VERTEX
  8
0
 10
597.982170
 20
603.653011
 42
-0.047452
  0
VERTEX
  8
0
 10
596.709893
 20
602.673965
 42
-0.000113
  0
VERTEX
  8
0
 10
576.960387
 20
590.269459
 42
-0.000737
  0
VERTEX
  8
0
 10
554.675466
 20
576.325284
 42
-0.000459
  0
VERTEX
  8
0
 10
528.500000
 20
560.033728
 42
0.000018
  0
VERTEX
  8
0
 10
502.282082
 20
543.747770
 42
0.000029
  0
VERTEX
  8
0
 10
479.861477
 20
529.817637
 42
0.000005
  0
VERTEX
  8
0
 10
460.062929
 20
517.514699
 42
0.001548
  0
VERTEX
  8
0
 10
458.411412
 20
516.481309
 42
0.181296
  0
VERTEX
  8
0
 10
456.994624
 20
514.617169
 42
0.013917
  0
VERTEX
  8
0
 10
455.326534
 20
508.430314
 42
0.009379
  0
VERTEX
  8
0
 10
452.994471
 20
497.840939
 42
0.001243
  0
VERTEX
  8
0
 10
448.536635
 20
475.332708
 42
-0.000127
  0
VERTEX
  8
0
 10
445.246634
 20
458.524254
 42
-0.000111
  0
VERTEX
  8
0
 10
441.799778
 20
440.958671
 42
-0.000111
  0
VERTEX
  8
0
 10
438.679545
 20
425.094903
 42
-0.000333
  0
VERTEX
  8
0
 10
436.536450
 20
414.250000
 42
0.000000
  0
VERTEX
  8
0
 10
432.322453
 20
393.000000
 42
0.000000
  0
VERTEX
  8
0
 10
492.723856
 20
393.000000
 42
0.000000
  0
VERTEX
  8
0
 10
553.125260
 20
393.000000
 42
0.000000
  0
VERTEX
  8
0
 10
591.312630
 20
416.829651
 42
-0.000029
  0
VERTEX
  8
0
 10
607.076783
 20
426.665505
 42
-0.000029
  0
VERTEX
  8
0
 10
622.864662
 20
436.513605
 42
-0.000028
  0
VERTEX
  8
0
 10
636.662827
 20
445.118363
 42
-0.000114
  0
VERTEX
  8
0
 10
645.098984
 20
450.375940
 42
0.000000
  0
VERTEX
  8
0
 10
660.697968
 20
460.092578
 42
0.000000
  0
VERTEX
  8
0
 10
664.422018
 20
477.296289
 42
-0.000158
  0
VERTEX
  8
0
 10
668.103767
 20
494.278649
 42
-0.000163
  0
VERTEX
  8
0
 10
671.754050
 20
511.063757
 42
-0.000170
  0
VERTEX
  8
0
 10
675.262251
 20
527.143900
 42
-0.000215
  0
VERTEX
  8
0
 10
678.515388
 20
542.000000
 42
0.000419
  0
VERTEX
  8
0
 10
680.389955
 20
550.577306
 42
0.000093
  0
VERTEX
  8
0
 10
683.588419
 20
565.284375
 42
0.000096
  0
VERTEX
  8
0
 10
687.278653
 20
582.283581
 42
0.000093
  0
VERTEX
  8
0
 10
691.009231
 20
599.500000
 42
-0.000292
  0
VERTEX
  8
0
 10
694.531809
 20
615.725194
 42
-0.000458
  0
VERTEX
  8
0
 10
697.582658
 20
629.676563
 42
-0.000114
  0
VERTEX
  8
0
 10
700.265849
 20
641.879771
 42
-0.017574
  0
VERTEX
  8
0
 10
700.618361
 20
643.250000
 42
0.471838
  0
VERTEX
  8
0
 10
699.877509
 20
644.345122
 42
0.014744
  0
VERTEX
  8
0
 10
693.733195
 20
644.743838
 42
0.008208
  0
VERTEX
  8
0
 10
682.229671
 20
644.961291
 42
0.000621
  0
VERTEX
  8
0
 10
651.086440
 20
645.000000
 42
0.000000
  0
VERTEX
  8
0
 10
601.038104
 20
645.000000
 42
0.000000
  0
SEQEND
  0
POLYLINE
  8
0
 66
1
 70
1
  0
VERTEX
  8
0
 10
619.615570
 20
556.116504
 42
-0.001907
  0
VERTEX
  8
0
 10
618.641717
 20
550.222640
 42
-0.003049
  0
VERTEX
  8
0
 10
617.760010
 20
545.196743
 42
-0.000637
  0
VERTEX
  8
0
 10
616.953358
 20
540.789831
 42
-0.151924
  0
VERTEX
  8
0
 10
616.765285
 20
540.431952
 42
-0.099160
  0
VERTEX
  8
0
 10
616.406502
 20
540.192907
 42
-0.000030
  0
VERTEX
  8
0
 10
600.209680
 20
533.535281
 42
-0.000540
  0
VERTEX
  8
0
 10
582.226754
 20
526.167473
 42
-0.000328
  0
VERTEX
  8
0
 10
560.941790
 20
517.489935
 42
0.000147
  0
VERTEX
  8
0
 10
538.926560
 20
508.523996
 42
0.000187
  0
VERTEX
  8
0
 10
518.637274
 20
500.245176
 42
0.000145
  0
VERTEX
  8
0
 10
501.628199
 20
493.291635
 42
0.001575
  0
VERTEX
  8
0
 10
494.780844
 20
490.464812
 42
-0.003521
  0
VERTEX
  8
0
 10
490.590776
 20
488.754062
 42
-0.005144
  0
VERTEX
  8
0
 10
486.874938
 20
487.311538
 42
-0.002625
  0
VERTEX
  8
0
 10
483.712198
 20
486.139947
 42
-0.087601
  0
VERTEX
  8
0
 10
482.919553
 20
486.000000
 42
-0.240957
  0
VERTEX
  8
0
 10
482.475842
 20
486.227011
 42
-0.112885
  0
VERTEX
  8
0
 10
482.217632
 20
486.837431
 42
-0.063135
  0
VERTEX
  8
0
 10
482.167866
 20
487.846906
 42
-0.023922
  0
VERTEX
  8
0
 10
482.343714
 20
489.250000
 42
0.009796
  0
VERTEX
  8
0
 10
482.632469
 20
491.123507
 42
0.001755
  0
VERTEX
  8
0
 10
483.090219
 20
494.629688
 42
0.001895
  0
VERTEX
  8
0
 10
483.596570
 20
498.741734
 42
0.001711
  0
VERTEX
  8
0
 10
484.089784
 20
503.000000
 42
-0.008574
  0
VERTEX
  8
0
 10
484.622910
 20
507.108600
 42
-0.011932
  0
VERTEX
  8
0
 10
485.250595
 20
510.764149
 42
-0.008473
  0
VERTEX
  8
0
 10
485.893537
 20
513.767983
 42
-0.132429
  0
VERTEX
  8
0
 10
486.384778
 20
514.686465
 42
-0.098731
  0
VERTEX
  8
0
 10
487.900498
 20
515.767447
 42
-0.000275
  0
VERTEX
  8
0
 10
510.798841
 20
526.052148
 42
-0.001910
  0
VERTEX
  8
0
 10
533.234454
 20
536.011390
 42
-0.002823
  0
VERTEX
  8
0
 10
553.000000
 20
544.562354
 42
0.002397
  0
VERTEX
  8
0
 10
556.579830
 20
546.107444
 42
0.000186
  0
VERTEX
  8
0
 10
566.137500
 20
550.291340
 42
0.000254
  0
VERTEX
  8
0
 10
577.534300
 20
555.292291
 42
0.000194
  0
VERTEX
  8
0
 10
590.000000
 20
560.775623
 42
-0.001760
  0
VERTEX
  8
0
 10
606.401006
 20
567.928781
 42
-0.009943
  0
VERTEX
  8
0
 10
615.237194
 20
571.538908
 42
-0.009832
  0
VERTEX
  8
0
 10
620.860170
 20
573.580736
 42
-0.458731
  0
VERTEX
  8
0
 10
621.792074
 20
573.032801
 42
-0.074360
  0
VERTEX
  8
0
 10
621.827276
 20
571.884235
 42
-0.002538
  0
VERTEX
  8
0
 10
621.273207
 20
567.398090
 42
-0.004722
  0
VERTEX
  8
0
 10
620.540172
 20
562.096827
 42
-0.003272
  0
SEQEND
  0
POLYLINE
  8
0
 66
1
 70
1
  0
VERTEX
  8
0
 10
609.372111
 20
490.250000
 42
-0.001140
  0
VERTEX
  8
0
 10
607.388208
 20
478.867324
 42
-0.014759
  0
VERTEX
  8
0
 10
606.514112
 20
474.649668
 42
-0.038851
  0
VERTEX
  8
0
 10
605.836196
 20
472.544457
 42
-0.304303
  0
VERTEX
  8
0
 10
605.024440
 20
472.000000
 42
0.107616
  0
VERTEX
  8
0
 10
603.889805
 20
471.752929
 42
0.000025
  0
VERTEX
  8
0
 10
554.704191
 20
449.262972
 42
0.000586
  0
VERTEX
  8
0
 10
510.761553
 20
429.105392
 42
0.001748
  0
VERTEX
  8
0
 10
480.750000
 20
415.168386
 42
-0.006207
  0
VERTEX
  8
0
 10
475.843037
 20
412.942628
 42
-0.021523
  0
VERTEX
  8
0
 10
472.594257
 20
411.681118
 42
-0.030382
  0
VERTEX
  8
0
 10
470.502378
 20
411.109832
 42
-0.475875
  0
VERTEX
  8
0
 10
470.000000
 20
411.518144
 42
-0.045202
  0
VERTEX
  8
0
 10
470.251101
 20
414.289986
 42
-0.000536
  0
VERTEX
  8
0
 10
473.549315
 20
432.235761
 42
-0.000177
  0
VERTEX
  8
0
 10
477.020648
 20
450.973174
 42
-0.151611
  0
VERTEX
  8
0
 10
477.443745
 20
451.777078
 42
-0.102312
  0
VERTEX
  8
0
 10
477.811466
 20
452.018778
 42
-0.000031
  0
VERTEX
  8
0
 10
494.560824
 20
458.660319
 42
-0.000553
  0
VERTEX
  8
0
 10
513.156153
 20
466.008726
 42
-0.000336
  0
VERTEX
  8
0
 10
535.166904
 20
474.661639
 42
0.000035
  0
VERTEX
  8
0
 10
557.747110
 20
483.522732
 42
0.000047
  0
VERTEX
  8
0
 10
578.155278
 20
491.535293
 42
0.000031
  0
VERTEX
  8
0
 10
595.288011
 20
498.264960
 42
0.000518
  0
VERTEX
  8
0
 10
601.000000
 20
500.515847
 42
-0.003588
  0
VERTEX
  8
0
 10
604.337678
 20
501.807482
 42
-0.005062
  0
VERTEX
  8
0
 10
607.331585
 20
502.906920
 42
-0.003017
  0
VERTEX
  8
0
 10
609.863575
 20
503.790569
 42
-0.068646
  0
VERTEX
  8
0
 10
610.618162
 20
503.937779
 42
-0.441427
  0
VERTEX
  8
0
 10
611.066247
 20
503.498200
 42
-0.013591
  0
VERTEX
  8
0
 10
610.882527
 20
500.613565
 42
-0.015079
  0
VERTEX
  8
0
 10
610.374971
 20
496.437283
 42
-0.004796
  0
SEQEND
  0
POLYLINE
  8
0
 66
1
 70
1
  0
VERTEX
  8
0
 10
311.394972
 20
482.328031
 42
-0.009014
  0
VERTEX
  8
0
 10
311.804214
 20
480.165425
 42
-0.000094
  0
VERTEX
  8
0
 10
314.379344
 20
465.055734
 42
-0.000302
  0
VERTEX
  8
0
 10
317.334226
 20
447.634382
 42
-0.000197
  0
VERTEX
  8
0
 10
320.728609
 20
427.500000
 42
0.000000
  0
VERTEX
  8
0
 10
329.474086
 20
375.500000
 42
0.000000
  0
VERTEX
  8
0
 10
329.987043
 20
303.000000
 42
0.000000
  0
VERTEX
  8
0
 10
330.500000
 20
230.500000
 42
0.000000
  0
VERTEX
  8
0
 10
368.000000
 20
230.500000
 42
0.000000
  0
VERTEX
  8
0
 10
405.500000
 20
230.500000
 42
0.000000
  0
VERTEX
  8
0
 10
406.012957
 20
303.000000
 42
0.000000
  0
VERTEX
  8
0
 10
406.525914
 20
375.500000
 42
0.000000
  0
VERTEX
  8
0
 10
415.271391
 20
427.500000
 42
-0.000197
  0
VERTEX
  8
0
 10
418.665774
 20
447.634382
 42
-0.000302
  0
VERTEX
  8
0
 10
421.620656
 20
465.055734
 42
-0.000094
  0
VERTEX
  8
0
 10
424.195786
 20
480.165425
 42
-0.009014
  0
VERTEX
  8
0
 10
424.605028
 20
482.328031
 42
0.471044
  0
VERTEX
  8
0
 10
423.805676
 20
483.325914
 42
0.101558
  0
VERTEX
  8
0
 10
421.298781
 20
482.850453
 42
0.018075
  0
VERTEX
  8
0
 10
415.288111
 20
480.122860
 42
0.001047
  0
VERTEX
  8
0
 10
397.225292
 20
471.078031
 42
-0.001688
  0
VERTEX
  8
0
 10
386.413759
 20
465.681573
 42
-0.002669
  0
VERTEX
  8
0
 10
377.103605
 20
461.135421
 42
-0.000634
  0
VERTEX
  8
0
 10
368.930701
 20
457.211237
 42
-0.112058
  0
VERTEX
  8
0
 10
368.000000
 20
457.000000
 42
-0.112058
  0
VERTEX
  8
0
 10
367.069299
 20
457.211237
 42
-0.000634
  0
VERTEX
  8
0
 10
358.896395
 20
461.135421
 42
-0.002669
  0
VERTEX
  8
0
 10
349.586241
 20
465.681573
 42
-0.001688
  0
VERTEX
  8
0
 10
338.774708
 20
471.078031
 42
0.001047
  0
VERTEX
  8
0
 10
320.711889
 20
480.122860
 42
0.018075
  0
VERTEX
  8
0
 10
314.701219
 20
482.850453
 42
0.101558
  0
VERTEX
  8
0
 10
312.194324
 20
483.325914
 42
0.471044
  0
SEQEND
  0
POLYLINE
  8
0
 66
1
 70
1
  0
VERTEX
  8
0
 10
103.415775
 20
410.250000
 42
-0.008441
  0
VERTEX
  8
0
 10
103.760524
 20
407.113732
 42
-0.000602
  0
VERTEX
  8
0
 10
104.561313
 20
398.376562
 42
-0.000848
  0
VERTEX
  8
0
 10
105.486126
 20
387.953753
 42
-0.000640
  0
VERTEX
  8
0
 10
106.468080
 20
376.500000
 42
0.000072
  0
VERTEX
  8
0
 10
113.381731
 20
294.766078
 42
0.000352
  0
VERTEX
  8
0
 10
117.321591
 20
248.653646
 42
0.000091
  0
VERTEX
  8
0
 10
120.138591
 20
216.024433
 42
0.029978
  0
VERTEX
  8
0
 10
120.510423
 20
213.500000
 42
0.152668
  0
VERTEX
  8
0
 10
121.224614
 20
212.220730
 42
0.002021
  0
VERTEX
  8
0
 10
127.927521
 20
205.918750
 42
0.005574
  0
VERTEX
  8
0
 10
135.850367
 20
198.693355
 42
0.003605
  0
VERTEX
  8
0
 10
145.172711
 20
190.500000
 42
-0.000333
  0
VERTEX
  8
0
 10
155.926939
 20
181.172209
 42
-0.000222
  0
VERTEX
  8
0
 10
168.229527
 20
170.477477
 42
-0.000224
  0
VERTEX
  8
0
 10
180.148820
 20
160.097267
 42
-0.000440
  0
VERTEX
  8
0
 10
189.619261
 20
151.827582
 42
0.002902
  0
VERTEX
  8
0
 10
197.408076
 20
145.093621
 42
0.004822
  0
VERTEX
  8
0
 10
204.060369
 20
139.519480
 42
0.000936
  0
VERTEX
  8
0
 10
209.924549
 20
134.719582
 42
0.384833
  0
VERTEX
  8
0
 10
210.410915
 20
134.744248
 42
0.197137
  0
VERTEX
  8
0
 10
210.653009
 20
135.323115
 42
0.000060
  0
VERTEX
  8
0
 10
210.826956
 20
161.240132
 42
0.001026
  0
VERTEX
  8
0
 10
210.957633
 20
190.031890
 42
0.000622
  0
VERTEX
  8
0
 10
211.000000
 20
224.115775
 42
0.000000
  0
VERTEX
  8
0
 10
211.000000
 20
312.898217
 42
0.000000
  0
VERTEX
  8
0
 10
207.750000
 20
315.294413
 42
0.015916
  0
VERTEX
  8
0
 10
205.533135
 20
316.822431
 42
0.001023
  0
VERTEX
  8
0
 10
198.918750
 20
321.058436
 42
0.001495
  0
VERTEX
  8
0
 10
191.009300
 20
326.067857
 42
0.001112
  0
VERTEX
  8
0
 10
182.250000
 20
331.551747
 42
0.000000
  0
VERTEX
  8
0
 10
160.000000
 20
345.412885
 42
0.000000
  0
VERTEX
  8
0
 10
160.000000
 20
362.138348
 42
0.000000
  0
VERTEX
  8
0
 10
160.000000
 20
378.863812
 42
0.000000
  0
VERTEX
  8
0
 10
157.250000
 20
380.811753
 42
0.012318
  0
VERTEX
  8
0
 10
151.197180
 20
384.879097
 42
0.000490
  0
VERTEX
  8
0
 10
128.742034
 20
399.147454
 42
0.000052
  0
VERTEX
  8
0
 10
104.075992
 20
414.783184
 42
0.142163
  0
VERTEX
  8
0
 10
103.328845
 20
415.000000
 42
0.406524
  0
VERTEX
  8
0
 10
103.146201
 20
414.822102
 42
0.011156
  0
VERTEX
  8
0
 10
103.141316
 20
413.604688
 42
0.016970
  0
VERTEX
  8
0
 10
103.221480
 20
412.071436
 42
0.010048
  0
SEQEND
  0
POLYLINE
  8
0
 66
1
 70
1
  0
VERTEX
  8
0
 10
603.793164
 20
397.160852
 42
0.000000
  0
VERTEX
  8
0
 10
576.086327
 20
379.500000
 42
0.000000
  0
VERTEX
  8
0
 10
576.043164
 20
362.456442
 42
0.000000
  0
VERTEX
  8
0
 10
576.000000
 20
345.412885
 42
0.000000
  0
VERTEX
  8
0
 10
553.750000
 20
331.551747
 42
0.001112
  0
VERTEX
  8
0
 10
544.990700
 20
326.067857
 42
0.001495
  0
VERTEX
  8
0
 10
537.081250
 20
321.058436
 42
0.001023
  0
VERTEX
  8
0
 10
530.466865
 20
316.822431
 42
0.015916
  0
VERTEX
  8
0
 10
528.250000
 20
315.294413
 42
0.000000
  0
VERTEX
  8
0
 10
525.000000
 20
312.898217
 42
0.000000
  0
VERTEX
  8
0
 10
525.000000
 20
224.115775
 42
0.000622
  0
VERTEX
  8
0
 10
525.042367
 20
190.031890
 42
0.001026
  0
VERTEX
  8
0
 10
525.173044
 20
161.240132
 42
0.000060
  0
VERTEX
  8
0
 10
525.346991
 20
135.323115
 42
0.197137
  0
VERTEX
  8
0
 10
525.589085
 20
134.744248
 42
0.384833
  0
VERTEX
  8
0
 10
526.075451
 20
134.719582
 42
0.000936
  0
VERTEX
  8
0
 10
531.939631
 20
139.519480
 42
0.004822
  0
VERTEX
  8
0
 10
538.591924
 20
145.093621
 42
0.002902
  0
VERTEX
  8
0
 10
546.380739
 20
151.827582
 42
-0.000440
  0
VERTEX
  8
0
 10
555.851180
 20
160.097267
 42
-0.000224
  0
VERTEX
  8
0
 10
567.770473
 20
170.477477
 42
-0.000222
  0
VERTEX
  8
0
 10
580.073061
 20
181.172209
 42
-0.000333
  0
VERTEX
  8
0
 10
590.827289
 20
190.500000
 42
0.003601
  0
VERTEX
  8
0
 10
600.149796
 20
198.693353
 42
0.005566
  0
VERTEX
  8
0
 10
608.073155
 20
205.918750
 42
0.002019
  0
VERTEX
  8
0
 10
614.776678
 20
212.220661
 42
0.152400
  0
VERTEX
  8
0
 10
615.491880
 20
213.500000
 42
0.030069
  0
VERTEX
  8
0
 10
615.731255
 20
215.114816
 42
0.000051
  0
VERTEX
  8
0
 10
618.158796
 20
242.965625
 42
0.000396
  0
VERTEX
  8
0
 10
620.856878
 20
274.243604
 42
0.000245
  0
VERTEX
  8
0
 10
623.980101
 20
311.000000
 42
-0.000224
  0
VERTEX
  8
0
 10
627.114995
 20
347.911931
 42
-0.000350
  0
VERTEX
  8
0
 10
629.851072
 20
379.695312
 42
-0.000091
  0
VERTEX
  8
0
 10
632.265352
 20
407.454024
 42
-0.012734
  0
VERTEX
  8
0
 10
632.637400
 20
410.750000
 42
0.018546
  0
VERTEX
  8
0
 10
632.801571
 20
412.373436
 42
0.032366
  0
VERTEX
  8
0
 10
632.800201
 20
413.725375
 42
0.037057
  0
VERTEX
  8
0
 10
632.664015
 20
414.693142
 42
0.382060
  0
VERTEX
  8
0
 10
632.363544
 20
414.910852
 42
0.113459
  0
VERTEX
  8
0
 10
631.727591
 20
414.693860
 42
0.000286
  0
VERTEX
  8
0
 10
623.614783
 20
409.660017
 42
0.001783
  0
VERTEX
  8
0
 10
614.477258
 20
403.937848
 42
0.001108
  0
SEQEND
  0
POLYLINE
  8
0
 66
1
 70
1
  0
VERTEX
  8
0
 10
300.000000
 20
345.505491
 42
-0.001760
  0
VERTEX
  8
0
 10
296.510672
 20
343.961917
 42
-0.000170
  0
VERTEX
  8
0
 10
288.037500
 20
340.252692
 42
-0.000217
  0
VERTEX
  8
0
 10
277.933143
 20
335.838712
 42
-0.000171
  0
VERTEX
  8
0
 10
267.000000
 20
331.072779
 42
0.000000
  0
VERTEX
  8
0
 10
239.500000
 20
319.096286
 42
0.000000
  0
VERTEX
  8
0
 10
239.245502
 20
212.746876
 42
0.000000
  0
VERTEX
  8
0
 10
238.991003
 20
106.397467
 42
0.000000
  0
VERTEX
  8
0
 10
249.064841
 20
92.948734
 42
0.002367
  0
VERTEX
  8
0
 10
252.979098
 20
87.774370
 42
0.003725
  0
VERTEX
  8
0
 10
256.394368
 20
83.372149
 42
0.001013
  0
VERTEX
  8
0
 10
259.401416
 20
79.571044
 42
0.138263
  0
VERTEX
  8
0
 10
259.870183
 20
79.233052
 42
0.349253
  0
VERTEX
  8
0
 10
260.273302
 20
79.367584
 42
0.009746
  0
VERTEX
  8
0
 10
261.310479
 20
81.032311
 42
0.015926
  0
VERTEX
  8
0
 10
262.487899
 20
83.157964
 42
0.009751
  0
VERTEX
  8
0
 10
263.746096
 20
85.733052
 42
-0.004220
  0
VERTEX
  8
0
 10
265.825347
 20
90.110668
 42
-0.000339
  0
VERTEX
  8
0
 10
271.412027
 20
101.601272
 42
-0.000458
  0
VERTEX
  8
0
 10
278.098427
 20
115.298254
 42
-0.000351
  0
VERTEX
  8
0
 10
285.427330
 20
130.250000
 42
-0.001488
  0
VERTEX
  8
0
 10
295.403809
 20
150.415021
 42
-0.009017
  0
VERTEX
  8
0
 10
300.793397
 20
160.756294
 42
-0.009236
  0
VERTEX
  8
0
 10
304.403845
 20
167.106975
 42
-0.263195
  0
VERTEX
  8
0
 10
305.982078
 20
168.012000
 42
-0.001432
  0
VERTEX
  8
0
 10
307.568152
 20
168.016888
 42
-0.000006
  0
VERTEX
  8
0
 10
325.032235
 20
168.020475
 42
-0.000030
  0
VERTEX
  8
0
 10
344.854423
 20
168.023134
 42
-0.000019
  0
VERTEX
  8
0
 10
368.000000
 20
168.024000
 42
-0.000019
  0
VERTEX
  8
0
 10
391.145577
 20
168.023134
 42
-0.000030
  0
VERTEX
  8
0
 10
410.967765
 20
168.020475
 42
-0.000006
  0
VERTEX
  8
0
 10
428.431848
 20
168.016888
 42
-0.001432
  0
VERTEX
  8
0
 10
430.017922
 20
168.012000
 42
-0.263195
  0
VERTEX
  8
0
 10
431.596155
 20
167.106975
 42
-0.009236
  0
VERTEX
  8
0
 10
435.206603
 20
160.756294
 42
-0.009017
  0
VERTEX
  8
0
 10
440.596191
 20
150.415021
 42
-0.001488
  0
VERTEX
  8
0
 10
450.572670
 20
130.250000
 42
-0.000351
  0
VERTEX
  8
0
 10
457.901573
 20
115.298254
 42
-0.000458
  0
VERTEX
  8
0
 10
464.587973
 20
101.601272
 42
-0.000339
  0
VERTEX
  8
0
 10
470.174653
 20
90.110668
 42
-0.004220
  0
VERTEX
  8
0
 10
472.253904
 20
85.733052
 42
0.009751
  0
VERTEX
  8
0
 10
473.512101
 20
83.157964
 42
0.015926
  0
VERTEX
  8
0
 10
474.689521
 20
81.032311
 42
0.009746
  0
VERTEX
  8
0
 10
475.726698
 20
79.367584
 42
0.349253
  0
VERTEX
  8
0
 10
476.129817
 20
79.233052
 42
0.138263
  0
VERTEX
  8
0
 10
476.598584
 20
79.571044
 42
0.001013
  0
VERTEX
  8
0
 10
479.605632
 20
83.372149
 42
0.003725
  0
VERTEX
  8
0
 10
483.020902
 20
87.774370
 42
0.002367
  0
VERTEX
  8
0
 10
486.935159
 20
92.948734
 42
0.000000
  0
VERTEX
  8
0
 10
497.008997
 20
106.397467
 42
0.000000
  0
VERTEX
  8
0
 10
496.754498
 20
212.739132
 42
0.000000
  0
VERTEX
  8
0
 10
496.500000
 20
319.080797
 42
0.000000
  0
VERTEX
  8
0
 10
484.000000
 20
324.593251
 42
0.001301
  0
VERTEX
  8
0
 10
467.074375
 20
332.004838
 42
0.001048
  0
VERTEX
  8
0
 10
448.843885
 20
339.885947
 42
0.000084
  0
VERTEX
  8
0
 10
430.337959
 20
347.836462
 42
0.101751
  0
VERTEX
  8
0
 10
429.542663
 20
348.000000
 42
0.411990
  0
VERTEX
  8
0
 10
429.319476
 20
347.778502
 42
0.000054
  0
VERTEX
  8
0
 10
429.159407
 20
326.409375
 42
0.001154
  0
VERTEX
  8
0
 10
429.038995
 20
302.683628
 42
0.000692
  0
VERTEX
  8
0
 10
429.000000
 20
274.500000
 42
0.000000
  0
VERTEX
  8
0
 10
429.000000
 20
201.000000
 42
0.000000
  0
VERTEX
  8
0
 10
368.000000
 20
201.000000
 42
0.000000
  0
VERTEX
  8
0
 10
307.000000
 20
201.000000
 42
0.000000
  0
VERTEX
  8
0
 10
307.000000
 20
274.500000
 42
0.000956
  0
VERTEX
  8
0
 10
306.946107
 20
302.682310
 42
0.001595
  0
VERTEX
  8
0
 10
306.779688
 20
326.403751
 42
0.000103
  0
VERTEX
  8
0
 10
306.558117
 20
347.683677
 42
0.418585
  0
VERTEX
  8
0
 10
306.250000
 20
347.980855
 42
0.084293
  0
VERTEX
  8
0
 10
305.748639
 20
347.882504
 42
0.003802
  0
VERTEX
  8
0
 10
304.104687
 20
347.245820
 42
0.006281
  0
VERTEX
  8
0
 10
302.161603
 20
346.447867
 42
0.004446
  0
SEQEND
  0
POLYLINE
  8
0
 66
1
 70
1
  0
VERTEX
  8
0
 10
323.512931
 20
136.365260
 42
0.000872
  0
VERTEX
  8
0
 10
321.782768
 20
132.645921
 42
0.001411
  0
VERTEX
  8
0
 10
320.325673
 20
129.475831
 42
0.000190
  0
VERTEX
  8
0
 10
319.038839
 20
126.652379
 42
0.107223
  0
VERTEX
  8
0
 10
319.000000
 20
126.473349
 42
-0.105356
  0
VERTEX
  8
0
 10
318.960995
 20
126.290293
 42
-0.000024
  0
VERTEX
  8
0
 10
315.328125
 20
118.153605
 42
-0.000489
  0
VERTEX
  8
0
 10
311.292812
 20
109.140373
 42
-0.000296
  0
VERTEX
  8
0
 10
306.500000
 20
98.480119
 42
0.000456
  0
VERTEX
  8
0
 10
301.707359
 20
87.811157
 42
0.000748
  0
VERTEX
  8
0
 10
297.671875
 20
78.769565
 42
0.000055
  0
VERTEX
  8
0
 10
294.059399
 20
70.640699
 42
0.104902
  0
VERTEX
  8
0
 10
294.000000
 20
70.360697
 42
0.412761
  0
VERTEX
  8
0
 10
294.147762
 20
70.212200
 42
0.000023
  0
VERTEX
  8
0
 10
315.768928
 20
70.105955
 42
0.000761
  0
VERTEX
  8
0
 10
339.690603
 20
70.025919
 42
0.000456
  0
VERTEX
  8
0
 10
368.106989
 20
70.000000
 42
0.000652
  0
VERTEX
  8
0
 10
406.467015
 20
70.050034
 42
0.003593
  0
VERTEX
  8
0
 10
427.141569
 20
70.252535
 42
0.001356
  0
VERTEX
  8
0
 10
441.239150
 20
70.530174
 42
0.523153
  0
VERTEX
  8
0
 10
441.715296
 20
71.250000
 42
0.010646
  0
VERTEX
  8
0
 10
440.682549
 20
73.686641
 42
0.000049
  0
VERTEX
  8
0
 10
429.334675
 20
98.943085
 42
0.000243
  0
VERTEX
  8
0
 10
419.002188
 20
121.903757
 42
0.001160
  0
VERTEX
  8
0
 10
413.064528
 20
135.000000
 42
0.000000
  0
VERTEX
  8
0
 10
408.274570
 20
145.500000
 42
0.000000
  0
VERTEX
  8
0
 10
368.150216
 20
145.761333
 42
0.000000
  0
VERTEX
  8
0
 10
328.025861
 20
146.022667
 42
0.000000
  0
SEQEND
  0
ENDSEC
  0
EOF
